<svg width="20" height="20" viewBox="0 0 20 20" fill="none" xmlns="http://www.w3.org/2000/svg">
<path d="M12.9166 9.16663C13.607 9.16663 14.1666 8.60698 14.1666 7.91663C14.1666 7.22627 13.607 6.66663 12.9166 6.66663C12.2263 6.66663 11.6666 7.22627 11.6666 7.91663C11.6666 8.60698 12.2263 9.16663 12.9166 9.16663Z" fill="#434140"/>
<path d="M7.08337 9.16663C7.77373 9.16663 8.33337 8.60698 8.33337 7.91663C8.33337 7.22627 7.77373 6.66663 7.08337 6.66663C6.39302 6.66663 5.83337 7.22627 5.83337 7.91663C5.83337 8.60698 6.39302 9.16663 7.08337 9.16663Z" fill="#434140"/>
<path d="M9.99996 13.3333C8.76663 13.3333 7.70829 12.6583 7.12496 11.6666H5.73329C6.39996 13.375 8.05829 14.5833 9.99996 14.5833C11.9416 14.5833 13.6 13.375 14.2666 11.6666H12.875C12.2916 12.6583 11.2333 13.3333 9.99996 13.3333ZM9.99163 1.66663C5.39163 1.66663 1.66663 5.39996 1.66663 9.99996C1.66663 14.6 5.39163 18.3333 9.99163 18.3333C14.6 18.3333 18.3333 14.6 18.3333 9.99996C18.3333 5.39996 14.6 1.66663 9.99163 1.66663ZM9.99996 16.6666C6.31663 16.6666 3.33329 13.6833 3.33329 9.99996C3.33329 6.31663 6.31663 3.33329 9.99996 3.33329C13.6833 3.33329 16.6666 6.31663 16.6666 9.99996C16.6666 13.6833 13.6833 16.6666 9.99996 16.6666Z" fill="#434140"/>
</svg>
